<svg width="1240" height="1240" viewBox="0 0 1240 1240" fill="none" xmlns="http://www.w3.org/2000/svg">
<rect width="1240" height="1240" fill="white"/>
<path d="M199.41 538.54V570.05H156.63V700H117.3V570.05H74.52V538.54H199.41ZM211.329 635.6C211.329 622.413 213.782 610.837 218.689 600.87C223.749 590.903 230.572 583.237 239.159 577.87C247.745 572.503 257.329 569.82 267.909 569.82C276.955 569.82 284.852 571.66 291.599 575.34C298.499 579.02 303.789 583.85 307.469 589.83V571.66H346.799V700H307.469V681.83C303.635 687.81 298.269 692.64 291.369 696.32C284.622 700 276.725 701.84 267.679 701.84C257.252 701.84 247.745 699.157 239.159 693.79C230.572 688.27 223.749 680.527 218.689 670.56C213.782 660.44 211.329 648.787 211.329 635.6ZM307.469 635.83C307.469 626.017 304.709 618.273 299.189 612.6C293.822 606.927 287.229 604.09 279.409 604.09C271.589 604.09 264.919 606.927 259.399 612.6C254.032 618.12 251.349 625.787 251.349 635.6C251.349 645.413 254.032 653.233 259.399 659.06C264.919 664.733 271.589 667.57 279.409 667.57C287.229 667.57 293.822 664.733 299.189 659.06C304.709 653.387 307.469 645.643 307.469 635.83ZM427.462 701.84C416.269 701.84 406.302 699.923 397.562 696.09C388.822 692.257 381.922 687.043 376.862 680.45C371.802 673.703 368.966 666.19 368.352 657.91H407.222C407.682 662.357 409.752 665.96 413.432 668.72C417.112 671.48 421.636 672.86 427.002 672.86C431.909 672.86 435.666 671.94 438.272 670.1C441.032 668.107 442.412 665.577 442.412 662.51C442.412 658.83 440.496 656.147 436.662 654.46C432.829 652.62 426.619 650.627 418.032 648.48C408.832 646.333 401.166 644.11 395.032 641.81C388.899 639.357 383.609 635.6 379.162 630.54C374.716 625.327 372.492 618.35 372.492 609.61C372.492 602.25 374.486 595.58 378.472 589.6C382.612 583.467 388.592 578.637 396.412 575.11C404.386 571.583 413.816 569.82 424.702 569.82C440.802 569.82 453.452 573.807 462.652 581.78C472.006 589.753 477.372 600.333 478.752 613.52H442.412C441.799 609.073 439.806 605.547 436.432 602.94C433.212 600.333 428.919 599.03 423.552 599.03C418.952 599.03 415.426 599.95 412.972 601.79C410.519 603.477 409.292 605.853 409.292 608.92C409.292 612.6 411.209 615.36 415.042 617.2C419.029 619.04 425.162 620.88 433.442 622.72C442.949 625.173 450.692 627.627 456.672 630.08C462.652 632.38 467.866 636.213 472.312 641.58C476.912 646.793 479.289 653.847 479.442 662.74C479.442 670.253 477.296 677 473.002 682.98C468.862 688.807 462.806 693.407 454.832 696.78C447.012 700.153 437.889 701.84 427.462 701.84ZM581.934 700L542.834 646.18V700H503.504V529.8H542.834V623.87L581.704 571.66H630.234L576.874 636.06L630.694 700H581.934Z" fill="#F75105"/>
<path d="M750.792 538.54V570.05H685.012V604.09H734.232V634.68H685.012V700H645.682V538.54H750.792ZM810.793 529.8V700H771.463V529.8H810.793ZM897.715 701.84C885.142 701.84 873.795 699.157 863.675 693.79C853.708 688.423 845.812 680.757 839.985 670.79C834.312 660.823 831.475 649.17 831.475 635.83C831.475 622.643 834.388 611.067 840.215 601.1C846.042 590.98 854.015 583.237 864.135 577.87C874.255 572.503 885.602 569.82 898.175 569.82C910.748 569.82 922.095 572.503 932.215 577.87C942.335 583.237 950.308 590.98 956.135 601.1C961.962 611.067 964.875 622.643 964.875 635.83C964.875 649.017 961.885 660.67 955.905 670.79C950.078 680.757 942.028 688.423 931.755 693.79C921.635 699.157 910.288 701.84 897.715 701.84ZM897.715 667.8C905.228 667.8 911.592 665.04 916.805 659.52C922.172 654 924.855 646.103 924.855 635.83C924.855 625.557 922.248 617.66 917.035 612.14C911.975 606.62 905.688 603.86 898.175 603.86C890.508 603.86 884.145 606.62 879.085 612.14C874.025 617.507 871.495 625.403 871.495 635.83C871.495 646.103 873.948 654 878.855 659.52C883.915 665.04 890.202 667.8 897.715 667.8ZM1169.97 571.66L1135.24 700H1091.77L1071.53 616.74L1050.6 700H1007.36L972.4 571.66H1011.73L1029.9 663.43L1051.52 571.66H1093.15L1115 662.97L1132.94 571.66H1169.97Z" fill="#22242B"/>
</svg>
