<svg width="1024" height="1024" viewBox="0 0 1024 1024" fill="none" xmlns="http://www.w3.org/2000/svg">
<g clip-path="url(#clip0_2_185)">
<path d="M512 938.667C452.978 938.667 397.511 927.467 345.6 905.067C293.689 882.667 248.533 852.267 210.133 813.867C171.733 775.467 141.333 730.311 118.933 678.4C96.5334 626.489 85.3334 571.022 85.3334 512C85.3334 452.978 96.5334 397.511 118.933 345.6C141.333 293.689 171.733 248.533 210.133 210.133C248.533 171.733 293.689 141.333 345.6 118.933C397.511 96.5334 452.978 85.3334 512 85.3334C558.222 85.3334 601.956 92.0889 643.2 105.6C684.445 119.111 722.489 137.956 757.333 162.133L695.467 225.067C668.445 208 639.644 194.667 609.067 185.067C578.489 175.467 546.133 170.667 512 170.667C417.422 170.667 336.889 203.911 270.4 270.4C203.911 336.889 170.667 417.422 170.667 512C170.667 606.578 203.911 687.111 270.4 753.6C336.889 820.089 417.422 853.333 512 853.333C606.578 853.333 687.111 820.089 753.6 753.6C820.089 687.111 853.333 606.578 853.333 512C853.333 499.2 852.622 486.4 851.2 473.6C849.778 460.8 847.645 448.356 844.8 436.267L914.133 366.933C921.956 389.689 928 413.156 932.267 437.333C936.533 461.511 938.667 486.4 938.667 512C938.667 571.022 927.467 626.489 905.067 678.4C882.667 730.311 852.267 775.467 813.867 813.867C775.467 852.267 730.311 882.667 678.4 905.067C626.489 927.467 571.022 938.667 512 938.667ZM452.267 708.267L270.933 526.933L330.667 467.2L452.267 588.8L878.933 161.067L938.667 220.8L452.267 708.267Z" fill="#F75105"/>
</g>
<defs>
<clipPath id="clip0_2_185">
<rect width="1024" height="1024" fill="white"/>
</clipPath>
</defs>
</svg>
